<mxfile host="65bd71144e">
    <diagram id="AlViBbgpn-ljOetnpS3-" name="Page-1">
        <mxGraphModel dx="1094" dy="907" grid="1" gridSize="10" guides="1" tooltips="1" connect="1" arrows="1" fold="1" page="1" pageScale="1" pageWidth="827" pageHeight="1169" math="0" shadow="0">
            <root>
                <mxCell id="0"/>
                <mxCell id="1" parent="0"/>
                <mxCell id="haVDCOdEreemgnmgKqWr-3" value="Unifi USG3&lt;br&gt;10.0.1.1/24" style="sketch=0;aspect=fixed;pointerEvents=1;shadow=0;dashed=0;html=1;strokeColor=none;labelPosition=center;verticalLabelPosition=bottom;verticalAlign=top;align=center;fillColor=#00188D;shape=mxgraph.mscae.enterprise.router" parent="1" vertex="1">
                    <mxGeometry x="60.13" y="220" width="89.74" height="70" as="geometry"/>
                </mxCell>
                <mxCell id="haVDCOdEreemgnmgKqWr-6" value="Internet" style="outlineConnect=0;dashed=0;verticalLabelPosition=bottom;verticalAlign=top;align=center;html=1;shape=mxgraph.aws3.internet_2;fillColor=#D2D3D3;gradientColor=none;" parent="1" vertex="1">
                    <mxGeometry x="40" y="20" width="130" height="80" as="geometry"/>
                </mxCell>
                <mxCell id="haVDCOdEreemgnmgKqWr-7" value="Office Switch" style="aspect=fixed;perimeter=ellipsePerimeter;html=1;align=center;shadow=0;dashed=0;spacingTop=3;image;image=img/lib/active_directory/switch.svg;" parent="1" vertex="1">
                    <mxGeometry x="414" y="220" width="70" height="70" as="geometry"/>
                </mxCell>
                <mxCell id="haVDCOdEreemgnmgKqWr-8" value="Garage Switch" style="aspect=fixed;perimeter=ellipsePerimeter;html=1;align=center;shadow=0;dashed=0;spacingTop=3;image;image=img/lib/active_directory/switch.svg;" parent="1" vertex="1">
                    <mxGeometry x="414" y="515" width="70" height="70" as="geometry"/>
                </mxCell>
                <mxCell id="haVDCOdEreemgnmgKqWr-9" value="Attic Switch" style="aspect=fixed;perimeter=ellipsePerimeter;html=1;align=center;shadow=0;dashed=0;spacingTop=3;image;image=img/lib/active_directory/switch.svg;" parent="1" vertex="1">
                    <mxGeometry x="414" y="820" width="70" height="70" as="geometry"/>
                </mxCell>
                <mxCell id="haVDCOdEreemgnmgKqWr-10" value="Work Laptop" style="dashed=0;outlineConnect=0;html=1;align=center;labelPosition=center;verticalLabelPosition=bottom;verticalAlign=top;shape=mxgraph.weblogos.apple;fillColor=#1B1C1C;strokeColor=none" parent="1" vertex="1">
                    <mxGeometry x="740" y="130" width="50" height="56.2" as="geometry"/>
                </mxCell>
                <mxCell id="haVDCOdEreemgnmgKqWr-12" value="Desktop" style="sketch=0;aspect=fixed;html=1;points=[];align=center;image;fontSize=12;image=img/lib/mscae/VirtualMachineWindows.svg;" parent="1" vertex="1">
                    <mxGeometry x="740" y="260" width="50" height="46" as="geometry"/>
                </mxCell>
            </root>
        </mxGraphModel>
    </diagram>
</mxfile>